<?xml version="1.0" encoding="UTF-8" standalone="no"?>
<!-- Created with Inkscape (http://www.inkscape.org/) -->

<svg
   xmlns:dc="http://purl.org/dc/elements/1.1/"
   xmlns:cc="http://creativecommons.org/ns#"
   xmlns:rdf="http://www.w3.org/1999/02/22-rdf-syntax-ns#"
   xmlns:svg="http://www.w3.org/2000/svg"
   xmlns="http://www.w3.org/2000/svg"
   xmlns:sodipodi="http://sodipodi.sourceforge.net/DTD/sodipodi-0.dtd"
   xmlns:inkscape="http://www.inkscape.org/namespaces/inkscape"
   width="210mm"
   height="297mm"
   viewBox="0 0 744.09448819 1052.3622047"
   id="svg4542"
   version="1.1"
   inkscape:version="0.91 r13725"
   sodipodi:docname="_icons.svg">
  <defs
     id="defs4544" />
  <sodipodi:namedview
     id="base"
     pagecolor="#ffffff"
     bordercolor="#666666"
     borderopacity="1.0"
     inkscape:pageopacity="0.0"
     inkscape:pageshadow="2"
     inkscape:zoom="3.959798"
     inkscape:cx="101.29231"
     inkscape:cy="22.754671"
     inkscape:document-units="px"
     inkscape:current-layer="layer1"
     showgrid="false"
     inkscape:window-width="1366"
     inkscape:window-height="743"
     inkscape:window-x="-8"
     inkscape:window-y="-8"
     inkscape:window-maximized="1"
     showguides="false" />
  <metadata
     id="metadata4547">
    <rdf:RDF>
      <cc:Work
         rdf:about="">
        <dc:format>image/svg+xml</dc:format>
        <dc:type
           rdf:resource="http://purl.org/dc/dcmitype/StillImage" />
        <dc:title />
      </cc:Work>
    </rdf:RDF>
  </metadata>
  <g
     inkscape:label="Capa 1"
     inkscape:groupmode="layer"
     id="layer1">
    <g
       id="message"
       transform="translate(49.064863,18.138835)">
      <path
         inkscape:connector-curvature="0"
         style="fill:#b4b4b4;fill-opacity:1;stroke:none;stroke-width:3;stroke-linejoin:bevel;stroke-miterlimit:4;stroke-dasharray:none;stroke-dashoffset:0;stroke-opacity:1"
         d="m 13.487867,920.22337 c -1.41444,0 -2.55273,1.14242 -2.55273,2.56054 l 0,12.58985 c 0,1.41812 1.13829,2.55859 2.55273,2.55859 l 8.54297,0 c 2.79775,0 -0.81369,4.97323 -3.21484,6.29102 7.81764,-0.34654 10.88672,-6.29102 10.88672,-6.29102 l 2.67969,0 c 1.41444,0 2.55273,-1.14047 2.55273,-2.55859 l 0,-12.58985 c 0,-1.41812 -1.13829,-2.56054 -2.55273,-2.56054 l -18.89454,0 z m 3.12305,6.17773 a 2.1781421,2.1781421 0 0 1 2.17774,2.17774 2.1781421,2.1781421 0 0 1 -2.17774,2.17773 2.1781421,2.1781421 0 0 1 -2.17773,-2.17773 2.1781421,2.1781421 0 0 1 2.17773,-2.17774 z m 6.34375,0 a 2.1781421,2.1781421 0 0 1 2.17969,2.17774 2.1781421,2.1781421 0 0 1 -2.17969,2.17773 2.1781421,2.1781421 0 0 1 -2.17773,-2.17773 2.1781421,2.1781421 0 0 1 2.17773,-2.17774 z m 6.3457,0 a 2.1781421,2.1781421 0 0 1 2.17774,2.17774 2.1781421,2.1781421 0 0 1 -2.17774,2.17773 2.1781421,2.1781421 0 0 1 -2.17773,-2.17773 2.1781421,2.1781421 0 0 1 2.17773,-2.17774 z"
         id="path4382" />
    </g>
    <g
       id="command"
       transform="translate(-102.67733,-9.6346053)">
      <path
         inkscape:connector-curvature="0"
         style="fill:#b4b4b4;fill-opacity:1;stroke:none;stroke-width:3;stroke-linejoin:bevel;stroke-miterlimit:4;stroke-dasharray:none;stroke-dashoffset:0;stroke-opacity:1"
         d="m 134.98202,947.99681 c -1.27634,0 -2.30469,1.02639 -2.30469,2.30273 l 0,19.39258 c 0,1.27634 1.02835,2.30469 2.30469,2.30469 l 19.39257,0 c 1.27634,0 2.30274,-1.02835 2.30274,-2.30469 l 0,-19.39258 c 0,-1.27634 -1.0264,-2.30273 -2.30274,-2.30273 l -19.39257,0 z m 2.3496,2.26757 c 0.5144,0 1.02771,0.19568 1.42188,0.58985 l 3.4082,3.4082 c 0.34585,0.34585 0.53963,0.78266 0.58203,1.23242 0.006,0.0628 0.01,0.12636 0.01,0.18946 0,0.0643 -0.004,0.12925 -0.01,0.19335 -0.0425,0.44956 -0.23633,0.88869 -0.58203,1.23438 l -3.4082,3.40625 c -0.78834,0.78835 -2.05735,0.78835 -2.8457,0 -0.78835,-0.78834 -0.78835,-2.05735 0,-2.8457 l 1.98632,-1.98633 -1.98632,-1.98633 c -0.78835,-0.78835 -0.78835,-2.05735 0,-2.8457 0.39417,-0.39417 0.90943,-0.58985 1.42382,-0.58985 z m 8.19727,8.17969 6.32227,0 c 0.79386,0 1.43359,0.63973 1.43359,1.43359 0,0.79387 -0.63973,1.43165 -1.43359,1.43165 l -6.32227,0 c -0.79387,-10e-6 -1.43164,-0.63778 -1.43164,-1.43165 0,-0.79386 0.63777,-1.43359 1.43164,-1.43359 z"
         id="path4386" />
    </g>
    <g
       id="backup"
       transform="translate(-5.9090967,47.663264)">
      <path
         inkscape:connector-curvature="0"
         style="fill:#e6e6e6;fill-rule:evenodd;stroke:none;stroke-width:1px;stroke-linecap:butt;stroke-linejoin:miter;stroke-opacity:1;fill-opacity:1"
         d="m 39.203207,950.69893 c -0.43573,0 -0.99841,0.3655 -1.04576,0.81633 l -2.24821,21.40671 c 0,0 6.58693,-0.10415 11.93995,-0.1995 5.35304,0.0953 11.940049,0.1995 11.940049,0.1995 l -2.24831,-21.40671 c -0.0474,-0.45083 -0.61003,-0.81633 -1.04575,-0.81633 l -2.389949,0 -12.51197,0 -2.39005,0 z"
         id="path4390" />
      <path
         inkscape:connector-curvature="0"
         style="fill:#b4b4b4;fill-opacity:1;fill-rule:evenodd;stroke:none;stroke-width:1.08587313px;stroke-linecap:butt;stroke-linejoin:miter;stroke-opacity:1"
         d="m 37.652267,967.01773 c -0.45727,0 -1.03267,0.2894 -1.19336,0.6707 l -0.54967,5.23354 c 0,0 6.58693,-0.10415 11.93995,-0.1995 5.35304,0.0953 11.940049,0.1995 11.940049,0.1995 l -0.54966,-5.23322 c -0.16052,-0.38146 -0.73608,-0.67102 -1.19346,-0.67102 l -2.818709,0 -14.75634,0 -2.8188,0 z"
         id="path4392" />
      <path
         style="opacity:1;fill:#808080;fill-opacity:1;stroke:none;stroke-width:5;stroke-linejoin:miter;stroke-miterlimit:4;stroke-dasharray:none;stroke-dashoffset:0;stroke-opacity:1"
         d="m 47.849237,953.98876 c -3.66737,0 -6.64038,1.9124 -6.6404,4.27148 0.002,0.9704 0.51806,1.91139 1.46258,2.66806 l 2.46961,-2.69689 -2.30472,0 c 0.0241,-1.76782 2.25902,-3.19617 5.01293,-3.19619 2.76894,-2e-5 5.01362,1.44387 5.01364,3.22502 6e-5,1.78118 -2.24464,3.22514 -5.01364,3.22512 -0.045,-10e-4 -0.0899,-0.002 -0.13486,-0.004 l 0,1.04771 c 0.0449,10e-4 0.0899,0.002 0.13486,0.003 3.66744,0 6.64047,-1.91246 6.64041,-4.27158 -3e-5,-2.35907 -2.97303,-4.27147 -6.64041,-4.27147 z"
         id="path4394"
         inkscape:connector-curvature="0"
         sodipodi:nodetypes="cccccsccccccsc" />
      <rect
         style="opacity:1;fill:#808080;fill-opacity:1;stroke:none;stroke-width:5;stroke-linejoin:miter;stroke-miterlimit:4;stroke-dasharray:none;stroke-dashoffset:0;stroke-opacity:1"
         id="rect4396"
         width="24"
         height="3.4829936"
         x="35.909096"
         y="971.21594"
         ry="1.7414968" />
    </g>
    <g
       id="delete"
       transform="translate(-73.806256,84.207331)">
      <path
         inkscape:connector-curvature="0"
         id="path4400"
         d="m 73.806256,914.132 c 8,0 16,0 24,0 0,8 0,16 0,24 -8,0 -16,0 -24,0 0,-8 0,-16 0,-24 z"
         style="opacity:1;fill:none;fill-opacity:1;stroke:none;stroke-width:5;stroke-linejoin:miter;stroke-miterlimit:4;stroke-dasharray:none;stroke-dashoffset:0;stroke-opacity:1" />
      <g
         style="fill:#cccccc"
         transform="matrix(0.24976117,0,0,0.24976117,27.131097,979.15336)"
         id="g4402">
        <path
           inkscape:connector-curvature="0"
           id="path4404"
           d="m 221.60186,-260.33415 c -1.88611,1.7008 -3.55515,3.92554 -5.57453,5.30469 -6.11708,0 -12.23417,0 -18.35125,0 0,3.40885 0,6.81771 0,10.22656 24.83268,0 49.66536,0 74.49804,0 0,-3.40885 0,-6.81771 0,-10.22656 -6.20833,0 -12.41667,0 -18.625,0 -1.88673,-1.70087 -3.55655,-3.9254 -5.57648,-5.30469 -8.79026,0 -17.58052,0 -26.37078,0 z"
           style="opacity:1;fill:#b4b4b4;fill-opacity:1;stroke:none;stroke-width:5;stroke-linejoin:miter;stroke-miterlimit:4;stroke-dasharray:none;stroke-dashoffset:0;stroke-opacity:1" />
        <path
           inkscape:connector-curvature="0"
           id="path4406"
           d="m 202.47393,-239.24626 c 0.0353,21.90355 -0.0707,43.81063 0.0533,65.71195 0.41641,6.00832 6.47515,10.05163 12.20471,9.29196 14.45036,-0.035 28.90425,0.0704 43.35239,-0.0533 6.00797,-0.41568 10.05188,-6.47344 9.29196,-12.20278 0,-20.91596 0,-41.83191 0,-62.74787 -21.63411,0 -43.26823,0 -64.90234,0 z"
           style="opacity:1;fill:#b4b4b4;fill-opacity:1;stroke:none;stroke-width:5;stroke-linejoin:miter;stroke-miterlimit:4;stroke-dasharray:none;stroke-dashoffset:0;stroke-opacity:1" />
      </g>
    </g>
    <g
       id="edit"
       transform="translate(41.928549,124.93978)">
      <path
         inkscape:connector-curvature="0"
         id="path4410"
         d="m 33.919747,874.24846 -12.54461,0 c -1.83026,0 -3.30368,1.47343 -3.30368,3.30369 l 0,16.56646 c 0,1.83026 1.4734,3.30383 3.30368,3.30381 l 16.56653,-4e-5 c 1.83026,0 3.30375,-1.47349 3.30375,-3.30375 l 0,-12.54454 -2.20257,2.20256 0,8.76758 c 0,1.48236 -1.19342,2.67578 -2.67578,2.67578 l -13.41746,-5e-5 c -1.48236,0 -2.67571,-1.19337 -2.67572,-2.67571 l 0,-13.41754 c 0,-1.48235 1.19342,-2.67578 2.67578,-2.67578 l 8.76751,0 2.20257,-2.20256 z"
         style="opacity:1;fill:#b4b4b4;fill-opacity:1;stroke:none;stroke-width:5;stroke-linejoin:miter;stroke-miterlimit:4;stroke-dasharray:none;stroke-dashoffset:0;stroke-opacity:1" />
      <path
         inkscape:connector-curvature="0"
         id="path4412"
         d="m 39.285387,873.6963 c -0.36515,-0.36515 -0.95309,-0.36515 -1.31825,0 l -1.19021,1.19022 3.83045,3.83044 1.19021,-1.19021 c 0.36515,-0.36515 0.36515,-0.95309 0,-1.31825 l -2.5122,-2.5122 z"
         style="opacity:1;fill:#b4b4b4;fill-opacity:1;stroke:none;stroke-width:5;stroke-linejoin:miter;stroke-miterlimit:4;stroke-dasharray:none;stroke-dashoffset:0;stroke-opacity:1" />
      <path
         inkscape:transform-center-x="-4.1969732"
         transform="matrix(0.03351601,0.03351601,-0.03351601,0.03351601,-2.9862833,914.14658)"
         inkscape:transform-center-y="-4.1969747"
         d="m 64.649698,-803.28606 -27.776327,-48.11001 -27.7763257,-48.11001 55.5526517,0 55.552653,0 -27.776329,48.11001 z"
         inkscape:randomized="0"
         inkscape:rounded="0"
         inkscape:flatsided="false"
         sodipodi:arg2="2.6179939"
         sodipodi:arg1="1.5707963"
         sodipodi:r2="32.073338"
         sodipodi:r1="64.146675"
         sodipodi:cy="-867.43274"
         sodipodi:cx="64.649696"
         sodipodi:sides="3"
         id="path4414"
         style="opacity:1;fill:#b4b4b4;fill-opacity:1;stroke:none;stroke-width:5;stroke-linejoin:miter;stroke-miterlimit:4;stroke-dasharray:none;stroke-dashoffset:0;stroke-opacity:1"
         sodipodi:type="star" />
      <path
         inkscape:connector-curvature="0"
         id="path4416"
         d="m 36.266757,875.50293 -0.73919,0.73919 -6.78895,6.78895 -0.73918,0.73918 0.73912,0.73912 2.24596,2.24597 0.73912,0.73912 0.73919,-0.73919 6.78895,-6.78895 0.73918,-0.73918 -0.73911,-0.73913 -2.24597,-2.24596 -0.73912,-0.73912 z"
         style="opacity:1;fill:#b4b4b4;fill-opacity:1;stroke:none;stroke-width:5;stroke-linejoin:miter;stroke-miterlimit:4;stroke-dasharray:none;stroke-dashoffset:0;stroke-opacity:1" />
    </g>
    <g
       id="add"
       transform="translate(-23.62461,129.45358)">
      <path
         inkscape:connector-curvature="0"
         id="path4420"
         d="m 125.6246,868.90596 a 12.000796,12.000796 0 0 0 -11.99999,12.00267 12.000796,12.000796 0 0 0 11.99999,11.99999 12.000796,12.000796 0 0 0 12.00001,-11.99999 12.000796,12.000796 0 0 0 -12.00001,-12.00267 z m 0,4.71153 c 1.00955,0 1.82279,0.81324 1.82279,1.82279 l 0,3.64556 3.64558,0 c 1.00953,0 1.82011,0.81324 1.82011,1.82279 0,1.00954 -0.81058,1.82011 -1.82011,1.82011 l -3.64558,0 0,3.64558 c 0,1.00954 -0.81324,1.82279 -1.82279,1.82279 -1.00953,0 -1.82277,-0.81325 -1.82277,-1.82279 l 0,-3.64558 -3.6429,0 c -1.00955,0 -1.82279,-0.81057 -1.82279,-1.82011 0,-1.00955 0.81324,-1.82279 1.82279,-1.82279 l 3.6429,0 0,-3.64556 c 0,-1.00955 0.81324,-1.82279 1.82277,-1.82279 z"
         style="opacity:1;fill:#b4b4b4;fill-opacity:1;stroke:none;stroke-width:5;stroke-linejoin:miter;stroke-miterlimit:4;stroke-dasharray:none;stroke-dashoffset:0;stroke-opacity:1" />
    </g>
    <g
       id="g4192"
       inkscape:export-xdpi="90"
       inkscape:export-ydpi="90">
      <rect
         style="opacity:1;fill:none;fill-opacity:1;stroke:none;stroke-width:5;stroke-linecap:round;stroke-linejoin:round;stroke-miterlimit:4;stroke-dasharray:none;stroke-dashoffset:0;stroke-opacity:1"
         id="rect4424"
         width="24"
         height="24"
         x="0.012266694"
         y="937.68018"
         ry="0" />
      <path
         id="path4428"
         d="m 9.7767107,937.92335 c 8.5e-4,5.9e-4 0.002,9.4e-4 0.003,0.002 -0.0835,0.008 -0.16416,0.10173 -0.17366,0.18482 l -0.32852,2.87272 a 9.1275042,9.1275042 0 0 0 -3.42246,1.9731 l -2.65681,-1.15383 c -0.0767,-0.0333 -0.19745,-0.01 -0.24693,0.058 -9e-5,-9.5e-4 -9e-5,-0.002 -1.9e-4,-0.003 l -0.008,0.0131 -2.21710004,3.84014 -0.008,0.0132 c 9.4e-4,-4.3e-4 0.002,-8.8e-4 0.003,-9.4e-4 -0.034,0.0768 0.006,0.19311 0.0732,0.24287 l 2.32006004,1.71833 a 9.1275042,9.1275042 0 0 0 -0.22869,1.99635 9.1275042,9.1275042 0 0 0 0.22906,1.98 l -2.32705004,1.72335 c -0.0672,0.0498 -0.10729,0.16607 -0.0732,0.24285 -9.3e-4,-4.3e-4 -0.002,-8.8e-4 -0.003,-9.4e-4 l 0.008,0.0132 2.21711004,3.84013 0.008,0.0131 c 9e-5,-9.5e-4 9e-5,-0.002 1.8e-4,-0.003 0.0495,0.0679 0.17023,0.0912 0.24694,0.058 l 2.65462,-1.15285 a 9.1275042,9.1275042 0 0 0 3.4323,1.99257 l 0.32748,2.86365 c 0.01,0.0831 0.0902,0.17592 0.17366,0.18482 -8.5e-4,5.9e-4 -0.002,9.5e-4 -0.003,0.002 l 0.0152,0 4.4342103,0 0.0152,0 c -8.6e-4,-5.9e-4 -0.002,-9.4e-4 -0.003,-0.002 0.0835,-0.008 0.16417,-0.10173 0.17367,-0.18482 l 0.32824,-2.86989 a 9.1275042,9.1275042 0 0 0 3.44988,-1.99267 l 2.6428,1.14779 c 0.0767,0.0333 0.19746,0.01 0.24693,-0.058 1.1e-4,9.5e-4 1.1e-4,0.002 2e-4,0.003 l 0.008,-0.0132 2.21711,-3.84014 0.008,-0.0131 0,-10e-5 c -9.4e-4,4.5e-4 -0.002,8.9e-4 -0.003,9.5e-4 0.034,-0.0768 -0.006,-0.193 -0.0732,-0.24277 l -2.31939,-1.71785 a 9.1275042,9.1275042 0 0 0 0.22291,-1.97414 9.1275042,9.1275042 0 0 0 -0.23009,-1.9851 l 2.31995,-1.71825 c 0.0672,-0.0498 0.10729,-0.16598 0.0732,-0.24276 9.3e-4,4.4e-4 0.002,8.7e-4 0.003,9.4e-4 l -0.008,-0.0132 -2.2171,-3.84012 -0.008,-0.0131 c -1.1e-4,9.5e-4 -2e-4,0.002 -3e-4,0.003 -0.0495,-0.0679 -0.17013,-0.0912 -0.24684,-0.058 l -2.64904,1.15053 a 9.1275042,9.1275042 0 0 0 -3.43815,-1.99335 l -0.3272,-2.86063 c -0.01,-0.083 -0.0902,-0.17589 -0.17367,-0.18482 8.6e-4,-5.8e-4 0.002,-9.4e-4 0.003,-0.002 l -0.0152,0 -4.4342103,0 -0.0152,0 z"
         style="opacity:1;fill:#b4b4b4;fill-opacity:1;stroke:none;stroke-width:5;stroke-linejoin:miter;stroke-miterlimit:4;stroke-dasharray:none;stroke-dashoffset:0;stroke-opacity:1"
         inkscape:connector-curvature="0" />
      <path
         sodipodi:nodetypes="ccccccccccscccccccscccc"
         inkscape:connector-curvature="0"
         id="path4430"
         d="m 16.748131,944.58344 -9.3775503,0.5266 -0.77205,8.88761 7.4382503,7.43823 0.18935,0 0.0152,0 c -8.6e-4,-5.8e-4 -0.002,-9.4e-4 -0.003,-0.002 0.0835,-0.008 0.16417,-0.10174 0.17367,-0.18482 l 0.32824,-2.86989 c 1.28266,-0.4021 2.46068,-1.08253 3.44987,-1.99268 l 2.64282,1.1478 c 0.0767,0.0333 0.19745,0.01 0.24693,-0.058 10e-5,9.4e-4 10e-5,0.002 1.9e-4,0.003 l 0.008,-0.0132 2.2171,-3.84013 0.008,-0.0131 0,-9e-5 c -9.3e-4,4.3e-4 -0.002,8.6e-4 -0.003,9.4e-4 0.034,-0.0768 -0.006,-0.193 -0.0732,-0.24278 l -2.3194,-1.71785 c 0.14592,-0.64797 0.22067,-1.30994 0.22292,-1.97415 -0.004,-0.24887 -0.0175,-0.49749 -0.0415,-0.74523 z"
         style="fill:#808080;fill-opacity:1;fill-rule:evenodd;stroke:none;stroke-width:1px;stroke-linecap:butt;stroke-linejoin:miter;stroke-opacity:1" />
      <path
         id="path4432"
         d="m 12.012341,942.70348 a 6.9761304,6.9761304 0 0 0 -6.9761403,6.97613 6.9761304,6.9761304 0 0 0 6.9761403,6.97615 6.9761304,6.9761304 0 0 0 6.97606,-6.97615 6.9761304,6.9761304 0 0 0 -6.97606,-6.97613 z m 0,2.24914 a 4.7269673,4.7269673 0 0 1 4.7269,4.72699 4.7269673,4.7269673 0 0 1 -4.7269,4.72699 4.7269673,4.7269673 0 0 1 -4.7269903,-4.72699 4.7269673,4.7269673 0 0 1 4.7269903,-4.72699 z"
         style="opacity:1;fill:#e6e6e6;fill-opacity:1;stroke:none;stroke-width:5;stroke-linejoin:miter;stroke-miterlimit:4;stroke-dasharray:none;stroke-dashoffset:0;stroke-opacity:1"
         inkscape:connector-curvature="0" />
      <circle
         style="opacity:1;fill:#e6e6e6;fill-opacity:1;stroke:none;stroke-width:5;stroke-linejoin:miter;stroke-miterlimit:4;stroke-dasharray:none;stroke-dashoffset:0;stroke-opacity:1"
         id="circle4434"
         cx="12.012288"
         cy="949.67963"
         r="2.4778044" />
    </g>
    <g
       id="play"
       transform="translate(-133.44364,123.14926)">
      <path
         id="path4438"
         d="m 145.44364,905.21294 a 12,12 0 0 0 -12,12 12,12 0 0 0 12,12 12,12 0 0 0 12,-12 12,12 0 0 0 -12,-12 z m -5.30624,5.87343 5.30624,3.06328 5.30626,3.06329 -5.30626,3.06562 -5.30624,3.06328 0,-6.1289 0,-6.12657 z"
         style="opacity:1;fill:#b4b4b4;fill-opacity:1;stroke:none;stroke-width:1;stroke-linejoin:miter;stroke-miterlimit:4;stroke-dasharray:none;stroke-dashoffset:0;stroke-opacity:1"
         inkscape:connector-curvature="0" />
    </g>
    <g
       id="stop"
       transform="translate(-45.346786,78.638435)">
      <path
         style="opacity:1;fill:#b4b4b4;fill-opacity:1;stroke:none;stroke-width:5;stroke-linecap:round;stroke-linejoin:round;stroke-miterlimit:4;stroke-dasharray:none;stroke-dashoffset:0;stroke-opacity:1"
         d="m 87.346786,949.72376 a 11.999958,11.999958 0 0 0 -12,12.00001 11.999958,11.999958 0 0 0 12,12 11.999958,11.999958 0 0 0 12,-12 11.999958,11.999958 0 0 0 -12,-12.00001 z m -5.93968,6.06033 11.87936,0 0,11.87936 -11.87936,0 0,-11.87936 z"
         id="path4442"
         inkscape:connector-curvature="0" />
    </g>
    <g
       id="op"
       transform="translate(-39.526567,-46.741696)">
      <path
         inkscape:connector-curvature="0"
         id="path4446"
         d="m 51.526567,1015.1026 a 12.000093,12.000093 0 0 0 -12,12 12.000093,12.000093 0 0 0 12,12.0013 12.000093,12.000093 0 0 0 11.999999,-12.0013 12.000093,12.000093 0 0 0 -11.999999,-12 z m -5.25961,6.6365 c 1.66224,0 2.96433,0.4756 3.90628,1.4267 0.94192,0.9512 1.41289,2.2648 1.41289,3.9409 0,1.6715 -0.47097,2.9828 -1.41289,3.934 -0.94195,0.9512 -2.24404,1.4267 -3.90628,1.4267 -1.65762,0 -2.95972,-0.4755 -3.90627,-1.4267 -0.94193,-0.9512 -1.4129,-2.2625 -1.4129,-3.934 0,-1.6761 0.47097,-2.9897 1.4129,-3.9409 0.94655,-0.9511 2.24865,-1.4267 3.90627,-1.4267 z m 7.32771,0.187 4.425719,0 c 1.31595,0 2.32483,0.2932 3.02667,0.8796 0.70644,0.5817 1.05967,1.4129 1.05967,2.4933 0,1.0851 -0.35323,1.9208 -1.05967,2.5072 -0.70184,0.5818 -1.71072,0.8727 -3.02667,0.8727 l -1.7592,0 0,3.5877 -2.666519,0 0,-10.3405 z m -7.32771,1.7453 c -0.81265,0 -1.44292,0.3002 -1.8908,0.9004 -0.44787,0.6003 -0.67182,1.4452 -0.67182,2.5349 0,1.0851 0.22395,1.9278 0.67182,2.528 0.44788,0.6002 1.07815,0.9004 1.8908,0.9004 0.81728,0 1.44985,-0.3002 1.89772,-0.9004 0.44789,-0.6002 0.67183,-1.4429 0.67183,-2.528 0,-1.0897 -0.22394,-1.9346 -0.67183,-2.5349 -0.44787,-0.6002 -1.08044,-0.9004 -1.89772,-0.9004 z m 9.994229,0.187 0,2.8882 1.47523,0 c 0.51716,0 0.91655,-0.1247 1.19821,-0.374 0.28165,-0.254 0.42249,-0.6118 0.42249,-1.0736 0,-0.4617 -0.14085,-0.8172 -0.42249,-1.0666 -0.28166,-0.2493 -0.68105,-0.374 -1.19821,-0.374 l -1.47523,0 z"
         style="opacity:1;fill:#b4b4b4;fill-opacity:1;stroke:none;stroke-width:1;stroke-linejoin:miter;stroke-miterlimit:4;stroke-dasharray:none;stroke-dashoffset:0;stroke-opacity:1" />
    </g>
    <g
       id="deop"
       transform="translate(-39.778593,-45.893696)">
      <path
         style="opacity:1;fill:#b4b4b4;fill-opacity:1;stroke:none;stroke-width:1;stroke-linejoin:miter;stroke-miterlimit:4;stroke-dasharray:none;stroke-dashoffset:0;stroke-opacity:1"
         d="m 81.778596,1014.2559 a 12.000095,11.999401 0 0 0 -12,11.9993 12.000095,11.999401 0 0 0 12,12.0007 12.000095,11.999401 0 0 0 12,-12.0007 12.000095,11.999401 0 0 0 -12,-11.9993 z m -5.25961,6.6361 c 1.66224,0 2.96433,0.4756 3.90627,1.4267 0.94194,0.9511 1.41291,2.2647 1.41291,3.9407 0,1.6713 -0.47097,2.9826 -1.41291,3.9337 -0.94194,0.9511 -2.24403,1.4267 -3.90627,1.4267 -1.65762,0 -2.95971,-0.4756 -3.90627,-1.4267 -0.94193,-0.9511 -1.4129,-2.2624 -1.4129,-3.9337 0,-1.676 0.47097,-2.9896 1.4129,-3.9407 0.94656,-0.9511 2.24865,-1.4267 3.90627,-1.4267 z m 7.32772,0.187 4.42572,0 c 1.31594,0 2.32482,0.2932 3.02667,0.8796 0.70644,0.5817 1.05968,1.4128 1.05968,2.4932 0,1.085 -0.35324,1.9207 -1.05968,2.507 -0.70185,0.5818 -1.71073,0.8727 -3.02667,0.8727 l -1.75921,0 0,3.5874 -2.66651,0 0,-10.3399 z m -7.32772,1.7453 c -0.81265,0 -1.44291,0.3001 -1.8908,0.9003 -0.44788,0.6002 -0.67182,1.4451 -0.67182,2.5348 0,1.085 0.22394,1.9276 0.67182,2.5278 0.44789,0.6002 1.07815,0.9003 1.8908,0.9003 0.81727,0 1.44985,-0.3001 1.89773,-0.9003 0.44788,-0.6002 0.67182,-1.4428 0.67182,-2.5278 0,-1.0897 -0.22394,-1.9346 -0.67182,-2.5348 -0.44788,-0.6002 -1.08046,-0.9003 -1.89773,-0.9003 z m 9.99423,0.187 0,2.8879 1.47525,0 c 0.51714,0 0.91654,-0.1246 1.19819,-0.374 0.28166,-0.2539 0.42249,-0.6117 0.42249,-1.0734 0,-0.4617 -0.14083,-0.8172 -0.42249,-1.0666 -0.28165,-0.2493 -0.68105,-0.3739 -1.19819,-0.3739 l -1.47525,0 z"
         id="path4450"
         inkscape:connector-curvature="0" />
      <path
         id="path4452"
         d="m 88.992706,1016.6844 -16.78711,16.7871 a 12,12 0 0 0 2.36016,2.3554 l 16.78711,-16.7871 a 12,12 0 0 0 -2.36016,-2.3554 z"
         style="opacity:1;fill:#808080;fill-opacity:1;stroke:none;stroke-width:1;stroke-linejoin:miter;stroke-miterlimit:4;stroke-dasharray:none;stroke-dashoffset:0;stroke-opacity:1"
         inkscape:connector-curvature="0" />
    </g>
    <g
       id="ban"
       transform="translate(-39.396665,-46.867996)">
      <path
         inkscape:connector-curvature="0"
         id="path4456"
         d="m 111.39714,1015.2283 a 12.000015,12.000015 0 0 0 -9.48452,4.6596 12.000015,12.000015 0 0 0 -0.40858,0.5512 l 0.008,0.01 a 12.000015,12.000015 0 0 0 -2.115334,6.7806 12.000015,12.000015 0 0 0 12.000504,12.0005 12.000015,12.000015 0 0 0 9.46981,-4.6392 12.000015,12.000015 0 0 0 0.42441,-0.5716 l -0.009,-0.01 a 12.000015,12.000015 0 0 0 2.11421,-6.7806 12.000015,12.000015 0 0 0 -11.99937,-11.9994 z m 0,3.6579 a 8.3414744,8.3414744 0 0 1 8.34139,8.3414 8.3414744,8.3414744 0 0 1 -1.10352,4.1334 l -11.36783,-11.3679 a 8.3414744,8.3414744 0 0 1 4.12996,-1.1069 z m -7.23789,4.2081 11.36897,11.3689 a 8.3414744,8.3414744 0 0 1 -4.13108,1.1069 8.3414744,8.3414744 0 0 1 -8.3414,-8.3425 8.3414744,8.3414744 0 0 1 1.10351,-4.1333 z"
         style="opacity:1;fill:#b4b4b4;fill-opacity:1;stroke:none;stroke-width:1;stroke-linejoin:miter;stroke-miterlimit:4;stroke-dasharray:none;stroke-dashoffset:0;stroke-opacity:1" />
    </g>
    <g
       id="pardon"
       transform="translate(-49.350555,-44.525613)">
      <rect
         style="opacity:1;fill:none;fill-opacity:1;stroke:none;stroke-width:5;stroke-linecap:round;stroke-linejoin:round;stroke-miterlimit:4;stroke-dasharray:none;stroke-dashoffset:0;stroke-opacity:1"
         id="rect4460"
         width="24"
         height="24"
         x="139.35056"
         y="1012.8878"
         ry="1.3932" />
      <path
         inkscape:connector-curvature="0"
         id="path4462"
         d="m 141.23315,1026.0288 5.99059,5.9906 14.24428,-14.2443"
         style="fill:none;fill-opacity:1;fill-rule:evenodd;stroke:#b4b4b4;stroke-width:3.72747421;stroke-linecap:round;stroke-linejoin:round;stroke-miterlimit:4;stroke-dasharray:none;stroke-opacity:1" />
    </g>
    <g
       id="more"
       transform="translate(-11.877541,-45.306619)">
      <rect
         style="opacity:1;fill:none;fill-opacity:1;stroke:none;stroke-width:5;stroke-linecap:round;stroke-linejoin:round;stroke-miterlimit:4;stroke-dasharray:none;stroke-dashoffset:0;stroke-opacity:1"
         id="rect4466"
         width="24"
         height="24"
         x="101.87754"
         y="983.66882" />
      <path
         style="opacity:1;fill:#b4b4b4;fill-opacity:1;stroke:none;stroke-width:5;stroke-linecap:round;stroke-linejoin:round;stroke-miterlimit:4;stroke-dasharray:none;stroke-dashoffset:0;stroke-opacity:1"
         d="m 101.87756,990.97386 5.99947,4.695 6.00159,4.69504 5.99947,-4.69504 5.99947,-4.695 -2.98056,0 -3.01891,2.3629 -5.99947,4.695 -6.00159,-4.695 -3.01891,-2.3629 -2.98056,0 z"
         id="path4468"
         inkscape:connector-curvature="0" />
    </g>
    <g
       id="port"
       inkscape:export-xdpi="90"
       inkscape:export-ydpi="90">
      <path
         inkscape:connector-curvature="0"
         id="path4195"
         d="m 62.304687,1028.3622 c -1.276339,0 -2.304687,1.0264 -2.304687,2.3027 l 0,19.3926 c 0,1.2763 1.028348,2.3047 2.304687,2.3047 l 19.392579,0 c 1.27634,0 2.302734,-1.0284 2.302734,-2.3047 l 0,-19.3926 c 0,-1.2763 -1.026394,-2.3027 -2.302734,-2.3027 l -19.392579,0 z"
         style="fill:#b4b4b4;fill-opacity:1;stroke:none;stroke-width:3;stroke-linejoin:bevel;stroke-miterlimit:4;stroke-dasharray:none;stroke-dashoffset:0;stroke-opacity:1" />
      <path
         inkscape:connector-curvature="0"
         id="rect4201"
         d="m 64.378906,1033.0966 c -0.210293,0 -0.378906,0.1706 -0.378906,0.3808 l 0,10.5059 c 0,0.2103 0.168613,0.3789 0.378906,0.3789 l 3.621094,0 0,2.8848 c 0,0.2103 0.168613,0.3808 0.378906,0.3808 l 7.242188,0 c 0.210293,0 0.378906,-0.1705 0.378906,-0.3808 l 0,-2.8848 3.621094,0 c 0.210293,0 0.378906,-0.1686 0.378906,-0.3789 l 0,-10.5059 c 0,-0.2102 -0.168613,-0.3808 -0.378906,-0.3808 l -15.242188,0 z"
         style="opacity:1;fill:#ffffff;fill-opacity:1;stroke:#808080;stroke-width:2;stroke-linecap:round;stroke-linejoin:miter;stroke-miterlimit:4;stroke-dasharray:none;stroke-opacity:1" />
      <rect
         style="opacity:1;fill:#808080;fill-opacity:1;stroke:none;stroke-width:4;stroke-linecap:round;stroke-linejoin:miter;stroke-miterlimit:4;stroke-dasharray:none;stroke-opacity:1"
         id="rect4255"
         width="1.6"
         height="4.3755102"
         x="67.526527"
         y="1032.8302"
         ry="0.80000001" />
      <rect
         ry="0.80000001"
         y="1032.8302"
         x="71.199997"
         height="4.3755102"
         width="1.6"
         id="rect4257"
         style="opacity:1;fill:#808080;fill-opacity:1;stroke:none;stroke-width:4;stroke-linecap:round;stroke-linejoin:miter;stroke-miterlimit:4;stroke-dasharray:none;stroke-opacity:1" />
      <rect
         style="opacity:1;fill:#808080;fill-opacity:1;stroke:none;stroke-width:4;stroke-linecap:round;stroke-linejoin:miter;stroke-miterlimit:4;stroke-dasharray:none;stroke-opacity:1"
         id="rect4259"
         width="1.6"
         height="4.3755102"
         x="74.873466"
         y="1032.8302"
         ry="0.80000001" />
    </g>
    <g
       id="align_left">
      <rect
         ry="0"
         y="938.86218"
         x="120.5"
         height="23"
         width="23"
         id="rect4222"
         style="fill:#6e6e6e;fill-opacity:1;stroke:#000000;stroke-width:1;stroke-linecap:round;stroke-linejoin:miter;stroke-miterlimit:4;stroke-dasharray:none;stroke-opacity:1" />
      <path
         sodipodi:nodetypes="cc"
         inkscape:connector-curvature="0"
         id="path4228"
         d="m 124.23583,943.08542 15.5368,0"
         style="fill:none;fill-rule:evenodd;stroke:#ffffff;stroke-width:2;stroke-linecap:butt;stroke-linejoin:miter;stroke-miterlimit:4;stroke-dasharray:none;stroke-opacity:1" />
      <path
         sodipodi:nodetypes="cc"
         style="fill:none;fill-rule:evenodd;stroke:#ffffff;stroke-width:2;stroke-linecap:butt;stroke-linejoin:miter;stroke-miterlimit:4;stroke-dasharray:none;stroke-opacity:1"
         d="m 124.23583,947.93661 7.45558,0.0631"
         id="path4230"
         inkscape:connector-curvature="0" />
      <path
         inkscape:connector-curvature="0"
         id="path4232"
         d="m 124.23583,952.7878 12.63261,0"
         style="fill:none;fill-rule:evenodd;stroke:#ffffff;stroke-width:2;stroke-linecap:butt;stroke-linejoin:miter;stroke-miterlimit:4;stroke-dasharray:none;stroke-opacity:1"
         sodipodi:nodetypes="cc" />
      <path
         sodipodi:nodetypes="cc"
         style="fill:none;fill-rule:evenodd;stroke:#ffffff;stroke-width:2;stroke-linecap:butt;stroke-linejoin:miter;stroke-miterlimit:4;stroke-dasharray:none;stroke-opacity:1"
         d="m 124.23583,957.63899 10.48604,0"
         id="path4234"
         inkscape:connector-curvature="0" />
    </g>
    <g
       id="align_center">
      <rect
         style="fill:#6e6e6e;fill-opacity:1;stroke:#000000;stroke-width:1;stroke-linecap:round;stroke-linejoin:miter;stroke-miterlimit:4;stroke-dasharray:none;stroke-opacity:1"
         id="rect4246"
         width="23"
         height="23"
         x="120.5"
         y="968.86218"
         ry="0" />
      <path
         style="fill:none;fill-rule:evenodd;stroke:#ffffff;stroke-width:2;stroke-linecap:butt;stroke-linejoin:miter;stroke-miterlimit:4;stroke-dasharray:none;stroke-opacity:1"
         d="m 124.2316,973.08542 15.5368,0"
         id="path4248"
         inkscape:connector-curvature="0"
         sodipodi:nodetypes="cc" />
      <path
         inkscape:connector-curvature="0"
         id="path4250"
         d="m 128.27221,977.93661 7.45558,0.0631"
         style="fill:none;fill-rule:evenodd;stroke:#ffffff;stroke-width:2;stroke-linecap:butt;stroke-linejoin:miter;stroke-miterlimit:4;stroke-dasharray:none;stroke-opacity:1"
         sodipodi:nodetypes="cc" />
      <path
         sodipodi:nodetypes="cc"
         style="fill:none;fill-rule:evenodd;stroke:#ffffff;stroke-width:2;stroke-linecap:butt;stroke-linejoin:miter;stroke-miterlimit:4;stroke-dasharray:none;stroke-opacity:1"
         d="m 125.68369,982.7878 12.63261,0"
         id="path4252"
         inkscape:connector-curvature="0" />
      <path
         inkscape:connector-curvature="0"
         id="path4254"
         d="m 126.75698,987.63899 10.48604,0"
         style="fill:none;fill-rule:evenodd;stroke:#ffffff;stroke-width:2;stroke-linecap:butt;stroke-linejoin:miter;stroke-miterlimit:4;stroke-dasharray:none;stroke-opacity:1"
         sodipodi:nodetypes="cc" />
    </g>
    <g
       id="align_right">
      <rect
         ry="0"
         y="998.86218"
         x="120.5"
         height="23"
         width="23"
         id="rect4256"
         style="fill:#6e6e6e;fill-opacity:1;stroke:#000000;stroke-width:1;stroke-linecap:round;stroke-linejoin:miter;stroke-miterlimit:4;stroke-dasharray:none;stroke-opacity:1" />
      <path
         sodipodi:nodetypes="cc"
         inkscape:connector-curvature="0"
         id="path4258"
         d="m 124.2316,1003.0854 15.5368,0"
         style="fill:none;fill-rule:evenodd;stroke:#ffffff;stroke-width:2;stroke-linecap:butt;stroke-linejoin:miter;stroke-miterlimit:4;stroke-dasharray:none;stroke-opacity:1" />
      <path
         sodipodi:nodetypes="cc"
         style="fill:none;fill-rule:evenodd;stroke:#ffffff;stroke-width:2;stroke-linecap:butt;stroke-linejoin:miter;stroke-miterlimit:4;stroke-dasharray:none;stroke-opacity:1"
         d="m 132.30437,1007.9366 7.45558,0.063"
         id="path4260"
         inkscape:connector-curvature="0" />
      <path
         inkscape:connector-curvature="0"
         id="path4262"
         d="m 127.13579,1012.7878 12.63261,0"
         style="fill:none;fill-rule:evenodd;stroke:#ffffff;stroke-width:2;stroke-linecap:butt;stroke-linejoin:miter;stroke-miterlimit:4;stroke-dasharray:none;stroke-opacity:1"
         sodipodi:nodetypes="cc" />
      <path
         sodipodi:nodetypes="cc"
         style="fill:none;fill-rule:evenodd;stroke:#ffffff;stroke-width:2;stroke-linecap:butt;stroke-linejoin:miter;stroke-miterlimit:4;stroke-dasharray:none;stroke-opacity:1"
         d="m 129.28236,1017.639 10.48604,0"
         id="path4264"
         inkscape:connector-curvature="0" />
    </g>
    <g
       id="upgrade"
       inkscape:export-xdpi="90"
       inkscape:export-ydpi="90">
      <path
         sodipodi:nodetypes="cccsccccccccccccccc"
         inkscape:connector-curvature="0"
         id="path4203"
         d="m 93.302735,1029.1883 c -1.811339,0.2106 -3.265017,1.8801 -3.302735,3.3047 l 0,12.543 0,4.0234 c 0,1.8302 1.472455,3.3028 3.302735,3.3028 5.522136,0 11.044275,0 16.566415,0 1.83026,0 3.30468,-1.4725 3.30468,-3.3028 0,-5.5221 0,-11.0443 0,-16.5664 0,-1.8302 -1.4744,-3.3047 -3.30468,-3.3047 -5.52214,0 -11.044279,0 -16.566415,0 z m 1.574218,2.2032 c 4.472655,0 8.945317,0 13.417977,0 1.48236,0 2.67577,1.1934 2.67578,2.6757 0,4.472 0,8.9441 0,13.4161 0,1.4823 -1.19342,2.6757 -2.67578,2.6757 -4.47266,0 -8.945322,0 -13.417977,0 -1.48236,0 -2.675771,-1.1934 -2.675781,-2.6757 0,-4.472 0,-8.9441 0,-13.4161 0,-1.4823 1.193421,-2.6757 2.675781,-2.6757 z"
         style="opacity:1;fill:#b4b4b4;fill-opacity:1;stroke:none;stroke-width:5;stroke-linejoin:miter;stroke-miterlimit:4;stroke-dasharray:none;stroke-dashoffset:0;stroke-opacity:1" />
      <path
         id="path4220"
         d="m 101.58691,1033.6119 -4.048823,3.3106 -4.048828,3.3105 4.574219,0 0,4.625 7.048822,0 0,-4.625 4.57227,0 -4.04883,-3.3105 -4.04883,-3.3106 z"
         style="fill:#b4b4b4;fill-opacity:1;stroke:none;stroke-width:2;stroke-linecap:round;stroke-linejoin:miter;stroke-miterlimit:4;stroke-dasharray:none;stroke-opacity:1"
         inkscape:connector-curvature="0" />
      <rect
         style="fill:#b4b4b4;fill-opacity:1;stroke:none;stroke-width:2;stroke-linecap:round;stroke-linejoin:miter;stroke-miterlimit:4;stroke-dasharray:none;stroke-opacity:1"
         id="rect4225"
         width="7.0495195"
         height="1.8956696"
         x="98.062996"
         y="1046.043" />
    </g>
  </g>
</svg>
